<svg xmlns="http://www.w3.org/2000/svg" width="1200.0000" height="360.0000" viewBox="0 0 1200.0000 360.0000">
<rect width="1200.0000" height="360.0000" fill="#0B0D10"/>
<rect class="lane-open" x="0.0000" y="324.0000" width="1200.0000" height="36.0000" fill="#F2F5F7" fill-opacity="0.1"/>
<line class="grid-beat" x1="72.0000" y1="0" x2="72.0000" y2="360.0000" stroke="#3A444F" stroke-width="1"/>
<line class="grid-beat" x1="168.0000" y1="0" x2="168.0000" y2="360.0000" stroke="#3A444F" stroke-width="1"/>
<line class="grid-beat" x1="264.0000" y1="0" x2="264.0000" y2="360.0000" stroke="#3A444F" stroke-width="1"/>
<line class="grid-beat" x1="456.0000" y1="0" x2="456.0000" y2="360.0000" stroke="#3A444F" stroke-width="1"/>
<line class="grid-beat" x1="552.0000" y1="0" x2="552.0000" y2="360.0000" stroke="#3A444F" stroke-width="1"/>
<line class="grid-beat" x1="648.0000" y1="0" x2="648.0000" y2="360.0000" stroke="#3A444F" stroke-width="1"/>
<line class="grid-beat" x1="840.0000" y1="0" x2="840.0000" y2="360.0000" stroke="#3A444F" stroke-width="1"/>
<line class="grid-beat" x1="936.0000" y1="0" x2="936.0000" y2="360.0000" stroke="#3A444F" stroke-width="1"/>
<line class="grid-beat" x1="1032.0000" y1="0" x2="1032.0000" y2="360.0000" stroke="#3A444F" stroke-width="1"/>
<line class="grid-bar" x1="360.0000" y1="0" x2="360.0000" y2="360.0000" stroke="#232A32" stroke-width="2"/>
<line class="grid-bar" x1="744.0000" y1="0" x2="744.0000" y2="360.0000" stroke="#232A32" stroke-width="2"/>
<line class="grid-bar" x1="1128.0000" y1="0" x2="1128.0000" y2="360.0000" stroke="#232A32" stroke-width="2"/>
<polyline class="ghost" points="0.0000,12.0000 4.0000,34.2222 8.0000,89.7778 12.0000,162.0000 16.0000,234.2222 20.0000,289.7778 24.0000,312.0000 28.0000,289.7778 32.0000,234.2222 36.0000,162.0000 40.0000,89.7778 44.0000,34.2222 48.0000,12.0000 52.0000,34.2222 56.0000,89.7778 60.0000,162.0000 64.0000,234.2222 68.0000,289.7778 72.0000,312.0000 76.0000,289.7778 80.0000,234.2222 84.0000,162.0000 88.0000,89.7778 92.0000,34.2222 96.0000,12.0000 100.0000,34.2222 104.0000,89.7778 108.0000,162.0000 112.0000,234.2222 116.0000,289.7778 120.0000,312.0000 124.0000,289.7778 128.0000,234.2222 132.0000,162.0000 136.0000,89.7778 140.0000,34.2222 144.0000,12.0000 148.0000,34.2222 152.0000,89.7778 156.0000,162.0000 160.0000,234.2222 164.0000,289.7778 168.0000,312.0000 172.0000,289.7778 176.0000,234.2222 180.0000,162.0000 184.0000,89.7778 188.0000,34.2222 192.0000,12.0000 196.0000,34.2222 200.0000,89.7778 204.0000,162.0000 208.0000,234.2222 212.0000,289.7778 216.0000,312.0000 220.0000,289.7778 224.0000,234.2222 228.0000,162.0000 232.0000,89.7778 236.0000,34.2222 240.0000,12.0000 244.0000,34.2222 248.0000,89.7778 252.0000,162.0000 256.0000,234.2222 260.0000,289.7778 264.0000,312.0000 268.0000,289.7778 272.0000,234.2222 276.0000,162.0000 280.0000,89.7778 284.0000,34.2222 288.0000,12.0000 292.0000,34.2222 296.0000,89.7778 300.0000,162.0000 304.0000,234.2222 308.0000,289.7778 312.0000,312.0000 316.0000,289.7778 320.0000,234.2222 324.0000,162.0000 328.0000,89.7778 332.0000,34.2222 336.0000,12.0000 340.0000,34.2222 344.0000,89.7778 348.0000,162.0000 352.0000,234.2222 356.0000,289.7778 360.0000,312.0000 364.0000,289.7778 368.0000,234.2222 372.0000,162.0000 376.0000,89.7778 380.0000,34.2222 384.0000,12.0000 388.0000,34.2222 392.0000,89.7778 396.0000,162.0000 400.0000,234.2222 404.0000,289.7778 408.0000,312.0000 412.0000,289.7778 416.0000,234.2222 420.0000,162.0000 424.0000,89.7778 428.0000,34.2222 432.0000,12.0000 436.0000,34.2222 440.0000,89.7778 444.0000,162.0000 448.0000,234.2222 452.0000,289.7778 456.0000,312.0000 460.0000,289.7778 464.0000,234.2222 468.0000,162.0000 472.0000,89.7778 476.0000,34.2222 480.0000,12.0000 484.0000,34.2222 488.0000,89.7778 492.0000,162.0000 496.0000,234.2222 500.0000,289.7778 504.0000,312.0000 508.0000,289.7778 512.0000,234.2222 516.0000,162.0000 520.0000,89.7778 524.0000,34.2222 528.0000,12.0000 532.0000,34.2222 536.0000,89.7778 540.0000,162.0000 544.0000,234.2222 548.0000,289.7778 552.0000,312.0000 556.0000,289.7778 560.0000,234.2222 564.0000,162.0000 568.0000,89.7778 572.0000,34.2222 576.0000,12.0000 580.0000,34.2222 584.0000,89.7778 588.0000,162.0000 592.0000,234.2222 596.0000,289.7778 600.0000,312.0000 604.0000,289.7778 608.0000,234.2222 612.0000,162.0000 616.0000,89.7778 620.0000,34.2222 624.0000,12.0000 628.0000,34.2222 632.0000,89.7778 636.0000,162.0000 640.0000,234.2222 644.0000,289.7778 648.0000,312.0000 652.0000,289.7778 656.0000,234.2222 660.0000,162.0000 664.0000,89.7778 668.0000,34.2222 672.0000,12.0000 676.0000,34.2222 680.0000,89.7778 684.0000,162.0000 688.0000,234.2222 692.0000,289.7778 696.0000,312.0000 700.0000,289.7778 704.0000,234.2222 708.0000,162.0000 712.0000,89.7778 716.0000,34.2222 720.0000,12.0000 724.0000,34.2222 728.0000,89.7778 732.0000,162.0000 736.0000,234.2222 740.0000,289.7778 744.0000,312.0000 748.0000,289.7778 752.0000,234.2222 756.0000,162.0000 760.0000,89.7778 764.0000,34.2222 768.0000,12.0000 772.0000,34.2222 776.0000,89.7778 780.0000,162.0000 784.0000,234.2222 788.0000,289.7778 792.0000,312.0000 796.0000,289.7778 800.0000,234.2222 804.0000,162.0000 808.0000,89.7778 812.0000,34.2222 816.0000,12.0000 820.0000,34.2222 824.0000,89.7778 828.0000,162.0000 832.0000,234.2222 836.0000,289.7778 840.0000,312.0000 844.0000,289.7778 848.0000,234.2222 852.0000,162.0000 856.0000,89.7778 860.0000,34.2222 864.0000,12.0000 868.0000,34.2222 872.0000,89.7778 876.0000,162.0000 880.0000,234.2222 884.0000,289.7778 888.0000,312.0000 892.0000,289.7778 896.0000,234.2222 900.0000,162.0000 904.0000,89.7778 908.0000,34.2222 912.0000,12.0000 916.0000,34.2222 920.0000,89.7778 924.0000,162.0000 928.0000,234.2222 932.0000,289.7778 936.0000,312.0000 940.0000,289.7778 944.0000,234.2222 948.0000,162.0000 952.0000,89.7778 956.0000,34.2222 960.0000,12.0000 964.0000,34.2222 968.0000,89.7778 972.0000,162.0000 976.0000,234.2222 980.0000,289.7778 984.0000,312.0000 988.0000,289.7778 992.0000,234.2222 996.0000,162.0000 1000.0000,89.7778 1004.0000,34.2222 1008.0000,12.0000 1012.0000,34.2222 1016.0000,89.7778 1020.0000,162.0000 1024.0000,234.2222 1028.0000,289.7778 1032.0000,312.0000 1036.0000,289.7778 1040.0000,234.2222 1044.0000,162.0000 1048.0000,89.7778 1052.0000,34.2222 1056.0000,12.0000 1060.0000,34.2222 1064.0000,89.7778 1068.0000,162.0000 1072.0000,234.2222 1076.0000,289.7778 1080.0000,312.0000 1084.0000,289.7778 1088.0000,234.2222 1092.0000,162.0000 1096.0000,89.7778 1100.0000,34.2222 1104.0000,12.0000 1108.0000,34.2222 1112.0000,89.7778 1116.0000,162.0000 1120.0000,234.2222 1124.0000,289.7778 1128.0000,312.0000 1132.0000,289.7778 1136.0000,234.2222 1140.0000,162.0000 1144.0000,89.7778 1148.0000,34.2222 1152.0000,12.0000 1156.0000,34.2222 1160.0000,89.7778 1164.0000,162.0000 1168.0000,234.2222 1172.0000,289.7778 1176.0000,312.0000 1180.0000,289.7778 1184.0000,234.2222 1188.0000,162.0000 1192.0000,89.7778 1196.0000,34.2222 1200.0000,12.0000 1204.0000,34.2222" fill="none" stroke="#7A8794" stroke-opacity="0.55" stroke-width="3"/>
<line class="playhead" x1="360.0000" y1="0" x2="360.0000" y2="360.0000" stroke="#3A444F" stroke-width="1"/>
<circle class="open" cx="360.0000" cy="312.0000" r="5" fill="none" stroke="#7A8794" stroke-width="2"/>
<circle class="open" cx="744.0000" cy="312.0000" r="5" fill="none" stroke="#7A8794" stroke-width="2"/>
<circle class="open" cx="1128.0000" cy="312.0000" r="5" fill="none" stroke="#7A8794" stroke-width="2"/>
</svg>
