<svg xmlns="http://www.w3.org/2000/svg" width="1200.0000" height="360.0000" viewBox="0 0 1200.0000 360.0000">
<rect width="1200.0000" height="360.0000" fill="#0B0D10"/>
<rect class="lane-open" x="24.0000" y="324.0000" width="46.0000" height="36.0000" fill="#F2F5F7" fill-opacity="0.1"/>
<rect class="lane-open" x="120.0000" y="324.0000" width="46.0000" height="36.0000" fill="#F2F5F7" fill-opacity="0.1"/>
<rect class="lane-open" x="216.0000" y="324.0000" width="46.0000" height="36.0000" fill="#F2F5F7" fill-opacity="0.1"/>
<rect class="lane-open" x="312.0000" y="324.0000" width="46.0000" height="36.0000" fill="#F2F5F7" fill-opacity="0.1"/>
<rect class="lane-open" x="408.0000" y="324.0000" width="46.0000" height="36.0000" fill="#F2F5F7" fill-opacity="0.1"/>
<rect class="lane-open" x="504.0000" y="324.0000" width="46.0000" height="36.0000" fill="#F2F5F7" fill-opacity="0.1"/>
<rect class="lane-open" x="600.0000" y="324.0000" width="46.0000" height="36.0000" fill="#F2F5F7" fill-opacity="0.1"/>
<rect class="lane-open" x="696.0000" y="324.0000" width="46.0000" height="36.0000" fill="#F2F5F7" fill-opacity="0.1"/>
<rect class="lane-open" x="792.0000" y="324.0000" width="46.0000" height="36.0000" fill="#F2F5F7" fill-opacity="0.1"/>
<rect class="lane-open" x="888.0000" y="324.0000" width="46.0000" height="36.0000" fill="#F2F5F7" fill-opacity="0.1"/>
<rect class="lane-open" x="984.0000" y="324.0000" width="46.0000" height="36.0000" fill="#F2F5F7" fill-opacity="0.1"/>
<rect class="lane-open" x="1080.0000" y="324.0000" width="46.0000" height="36.0000" fill="#F2F5F7" fill-opacity="0.1"/>
<rect class="lane-open" x="1176.0000" y="324.0000" width="24.0000" height="36.0000" fill="#F2F5F7" fill-opacity="0.1"/>
<line class="grid-beat" x1="72.0000" y1="0" x2="72.0000" y2="360.0000" stroke="#3A444F" stroke-width="1"/>
<line class="grid-beat" x1="168.0000" y1="0" x2="168.0000" y2="360.0000" stroke="#3A444F" stroke-width="1"/>
<line class="grid-beat" x1="264.0000" y1="0" x2="264.0000" y2="360.0000" stroke="#3A444F" stroke-width="1"/>
<line class="grid-beat" x1="456.0000" y1="0" x2="456.0000" y2="360.0000" stroke="#3A444F" stroke-width="1"/>
<line class="grid-beat" x1="552.0000" y1="0" x2="552.0000" y2="360.0000" stroke="#3A444F" stroke-width="1"/>
<line class="grid-beat" x1="648.0000" y1="0" x2="648.0000" y2="360.0000" stroke="#3A444F" stroke-width="1"/>
<line class="grid-beat" x1="840.0000" y1="0" x2="840.0000" y2="360.0000" stroke="#3A444F" stroke-width="1"/>
<line class="grid-beat" x1="936.0000" y1="0" x2="936.0000" y2="360.0000" stroke="#3A444F" stroke-width="1"/>
<line class="grid-beat" x1="1032.0000" y1="0" x2="1032.0000" y2="360.0000" stroke="#3A444F" stroke-width="1"/>
<line class="grid-bar" x1="360.0000" y1="0" x2="360.0000" y2="360.0000" stroke="#232A32" stroke-width="2"/>
<line class="grid-bar" x1="744.0000" y1="0" x2="744.0000" y2="360.0000" stroke="#232A32" stroke-width="2"/>
<line class="grid-bar" x1="1128.0000" y1="0" x2="1128.0000" y2="360.0000" stroke="#232A32" stroke-width="2"/>
<polyline class="ghost" points="24.0000,12.0000 28.0000,17.9028 32.0000,34.2222 36.0000,58.8750 40.0000,89.7778 44.0000,124.8472 48.0000,162.0000 52.0000,199.1528 56.0000,234.2222 60.0000,265.1250 64.0000,289.7778 68.0000,306.0972" fill="none" stroke="#7A8794" stroke-opacity="0.55" stroke-width="3"/>
<polyline class="ghost" points="120.0000,12.0000 124.0000,17.9028 128.0000,34.2222 132.0000,58.8750 136.0000,89.7778 140.0000,124.8472 144.0000,162.0000 148.0000,199.1528 152.0000,234.2222 156.0000,265.1250 160.0000,289.7778 164.0000,306.0972" fill="none" stroke="#7A8794" stroke-opacity="0.55" stroke-width="3"/>
<polyline class="ghost" points="216.0000,12.0000 220.0000,17.9028 224.0000,34.2222 228.0000,58.8750 232.0000,89.7778 236.0000,124.8472 240.0000,162.0000 244.0000,199.1528 248.0000,234.2222 252.0000,265.1250 256.0000,289.7778 260.0000,306.0972" fill="none" stroke="#7A8794" stroke-opacity="0.55" stroke-width="3"/>
<polyline class="ghost" points="312.0000,12.0000 316.0000,17.9028 320.0000,34.2222 324.0000,58.8750 328.0000,89.7778 332.0000,124.8472 336.0000,162.0000 340.0000,199.1528 344.0000,234.2222 348.0000,265.1250 352.0000,289.7778 356.0000,306.0972" fill="none" stroke="#7A8794" stroke-opacity="0.55" stroke-width="3"/>
<polyline class="ghost" points="408.0000,12.0000 412.0000,17.9028 416.0000,34.2222 420.0000,58.8750 424.0000,89.7778 428.0000,124.8472 432.0000,162.0000 436.0000,199.1528 440.0000,234.2222 444.0000,265.1250 448.0000,289.7778 452.0000,306.0972" fill="none" stroke="#7A8794" stroke-opacity="0.55" stroke-width="3"/>
<polyline class="ghost" points="504.0000,12.0000 508.0000,17.9028 512.0000,34.2222 516.0000,58.8750 520.0000,89.7778 524.0000,124.8472 528.0000,162.0000 532.0000,199.1528 536.0000,234.2222 540.0000,265.1250 544.0000,289.7778 548.0000,306.0972" fill="none" stroke="#7A8794" stroke-opacity="0.55" stroke-width="3"/>
<polyline class="ghost" points="600.0000,12.0000 604.0000,17.9028 608.0000,34.2222 612.0000,58.8750 616.0000,89.7778 620.0000,124.8472 624.0000,162.0000 628.0000,199.1528 632.0000,234.2222 636.0000,265.1250 640.0000,289.7778 644.0000,306.0972" fill="none" stroke="#7A8794" stroke-opacity="0.55" stroke-width="3"/>
<polyline class="ghost" points="696.0000,12.0000 700.0000,17.9028 704.0000,34.2222 708.0000,58.8750 712.0000,89.7778 716.0000,124.8472 720.0000,162.0000 724.0000,199.1528 728.0000,234.2222 732.0000,265.1250 736.0000,289.7778 740.0000,306.0972" fill="none" stroke="#7A8794" stroke-opacity="0.55" stroke-width="3"/>
<polyline class="ghost" points="792.0000,12.0000 796.0000,17.9028 800.0000,34.2222 804.0000,58.8750 808.0000,89.7778 812.0000,124.8472 816.0000,162.0000 820.0000,199.1528 824.0000,234.2222 828.0000,265.1250 832.0000,289.7778 836.0000,306.0972" fill="none" stroke="#7A8794" stroke-opacity="0.55" stroke-width="3"/>
<polyline class="ghost" points="888.0000,12.0000 892.0000,17.9028 896.0000,34.2222 900.0000,58.8750 904.0000,89.7778 908.0000,124.8472 912.0000,162.0000 916.0000,199.1528 920.0000,234.2222 924.0000,265.1250 928.0000,289.7778 932.0000,306.0972" fill="none" stroke="#7A8794" stroke-opacity="0.55" stroke-width="3"/>
<polyline class="ghost" points="984.0000,12.0000 988.0000,17.9028 992.0000,34.2222 996.0000,58.8750 1000.0000,89.7778 1004.0000,124.8472 1008.0000,162.0000 1012.0000,199.1528 1016.0000,234.2222 1020.0000,265.1250 1024.0000,289.7778 1028.0000,306.0972" fill="none" stroke="#7A8794" stroke-opacity="0.55" stroke-width="3"/>
<polyline class="ghost" points="1080.0000,12.0000 1084.0000,17.9028 1088.0000,34.2222 1092.0000,58.8750 1096.0000,89.7778 1100.0000,124.8472 1104.0000,162.0000 1108.0000,199.1528 1112.0000,234.2222 1116.0000,265.1250 1120.0000,289.7778 1124.0000,306.0972" fill="none" stroke="#7A8794" stroke-opacity="0.55" stroke-width="3"/>
<polyline class="ghost" points="1176.0000,12.0000 1180.0000,17.9028 1184.0000,34.2222 1188.0000,58.8750 1192.0000,89.7778 1196.0000,124.8472 1200.0000,162.0000 1204.0000,199.1528" fill="none" stroke="#7A8794" stroke-opacity="0.55" stroke-width="3"/>
<line class="playhead" x1="360.0000" y1="0" x2="360.0000" y2="360.0000" stroke="#3A444F" stroke-width="1"/>
<circle class="open" cx="24.0000" cy="12.0000" r="5" fill="none" stroke="#7A8794" stroke-width="2"/>
<circle class="open" cx="120.0000" cy="12.0000" r="5" fill="none" stroke="#7A8794" stroke-width="2"/>
<circle class="open" cx="216.0000" cy="12.0000" r="5" fill="none" stroke="#7A8794" stroke-width="2"/>
<circle class="open" cx="312.0000" cy="12.0000" r="5" fill="none" stroke="#7A8794" stroke-width="2"/>
<circle class="open" cx="408.0000" cy="12.0000" r="5" fill="none" stroke="#7A8794" stroke-width="2"/>
<circle class="open" cx="504.0000" cy="12.0000" r="5" fill="none" stroke="#7A8794" stroke-width="2"/>
<circle class="open" cx="600.0000" cy="12.0000" r="5" fill="none" stroke="#7A8794" stroke-width="2"/>
<circle class="open" cx="696.0000" cy="12.0000" r="5" fill="none" stroke="#7A8794" stroke-width="2"/>
<circle class="open" cx="792.0000" cy="12.0000" r="5" fill="none" stroke="#7A8794" stroke-width="2"/>
<circle class="open" cx="888.0000" cy="12.0000" r="5" fill="none" stroke="#7A8794" stroke-width="2"/>
<circle class="open" cx="984.0000" cy="12.0000" r="5" fill="none" stroke="#7A8794" stroke-width="2"/>
<circle class="open" cx="1080.0000" cy="12.0000" r="5" fill="none" stroke="#7A8794" stroke-width="2"/>
<circle class="open" cx="1176.0000" cy="12.0000" r="5" fill="none" stroke="#7A8794" stroke-width="2"/>
<circle class="close" cx="70.0000" cy="310.4809" r="5" fill="#34E1C4"/>
<circle class="close" cx="166.0000" cy="310.4809" r="5" fill="#34E1C4"/>
<circle class="close" cx="262.0000" cy="310.4809" r="5" fill="#34E1C4"/>
<circle class="close" cx="358.0000" cy="310.4809" r="5" fill="#34E1C4"/>
<circle class="close" cx="360.0000" cy="312.0000" r="5" fill="#34E1C4"/>
<circle class="close" cx="454.0000" cy="310.4809" r="5" fill="#34E1C4"/>
<circle class="close" cx="550.0000" cy="310.4809" r="5" fill="#34E1C4"/>
<circle class="close" cx="646.0000" cy="310.4809" r="5" fill="#34E1C4"/>
<circle class="close" cx="742.0000" cy="310.4809" r="5" fill="#34E1C4"/>
<circle class="close" cx="744.0000" cy="312.0000" r="5" fill="#34E1C4"/>
<circle class="close" cx="838.0000" cy="310.4809" r="5" fill="#34E1C4"/>
<circle class="close" cx="934.0000" cy="310.4809" r="5" fill="#34E1C4"/>
<circle class="close" cx="1030.0000" cy="310.4809" r="5" fill="#34E1C4"/>
<circle class="close" cx="1126.0000" cy="310.4809" r="5" fill="#34E1C4"/>
<circle class="close" cx="1128.0000" cy="312.0000" r="5" fill="#34E1C4"/>
</svg>
